#!OML:ASF E:\Style4\Style4.ASF
:FULLY-SPECIFIED
:DEGREES
1748
root 0.459716 16.9455 -1.07787 2.4327 -4.75905 5.19486
lowerback 16.8842 5.56755 -1.16146
upperback 12.442 7.0988 -0.00165406
thorax 3.80261 3.49633 -0.291805
lowerneck 8.85271 -5.66519 -6.06865
upperneck 2.8897 -8.01372 4.31913
head -0.152022 -4.08209 2.61295
rclavicle 6.20208e-014 -4.45278e-014
rhumerus 21.3565 9.93942 -84.708
rradius 121.931
rwrist 23.4292
rhand 32.9451 -11.807
rfingers 7.12502
rthumb 56.3334 -28.9352
lclavicle 6.20208e-014 -4.45278e-014
lhumerus 29.9935 -20.9916 76.2133
lradius 132.147
lwrist -13.8012
lhand 25.5954 45.2965
lfingers 7.12502
lthumb 49.7072 66.6716
rfemur -30.5261 -3.855 12.0691
rtibia 53.7213
rfoot -23.4083 -16.0461
rtoes -14.572
lfemur -27.0538 8.45079 -26.6163
ltibia 49.5838
lfoot -25.7489 10.91
ltoes -13.322
1749
root 0.454995 16.9635 -1.07784 2.5594 -4.58537 5.27254
lowerback 16.8309 5.59473 -1.23485
upperback 12.3666 7.12676 0.0692879
thorax 3.72806 3.50349 -0.181869
lowerneck 8.86356 -5.74536 -5.99597
upperneck 2.86538 -8.11282 4.26588
head -0.16098 -4.12989 2.58473
rclavicle 2.38542e-015 -2.14687e-014
rhumerus 20.4053 10.1125 -85.086
rradius 122.068
rwrist 23.2147
rhand 33.1245 -11.9398
rfingers 7.12502
rthumb 56.4919 -28.9414
lclavicle 2.38542e-015 -2.14687e-014
lhumerus 30.4546 -20.6636 75.9252
lradius 132.044
lwrist -13.6629
lhand 25.1166 45.1951
lfingers 7.12502
lthumb 49.2682 66.7937
rfemur -30.4703 -3.93123 12.0021
rtibia 53.4498
rfoot -22.9362 -16.2898
rtoes -15.794
lfemur -27.0316 8.2707 -26.7079
ltibia 49.2616
lfoot -25.5323 10.9685
ltoes -13.5453
1750
root 0.451408 16.9825 -1.07879 2.66585 -4.4163 5.30578
lowerback 16.8248 5.58449 -1.27887
upperback 12.3479 7.1076 0.190133
thorax 3.68851 3.4864 -0.0305668
lowerneck 8.67723 -5.82234 -6.09779
upperneck 2.87955 -8.21535 4.20712
head -0.11704 -4.1798 2.57638
rclavicle -5.64548e-014 4.37326e-014
rhumerus 19.6431 10.3056 -85.3458
rradius 122.198
rwrist 22.9476
rhand 33.3129 -11.9301
rfingers 7.12502
rthumb 56.6582 -28.7974
lclavicle -5.64548e-014 4.37326e-014
lhumerus 30.9399 -20.2455 75.7712
lradius 131.899
lwrist -13.6704
lhand 25.0788 44.8479
lfingers 7.12502
lthumb 49.2335 66.464
rfemur -30.3983 -3.99349 11.9875
rtibia 53.1793
rfoot -22.5196 -16.3921
rtoes -15.6787
lfemur -26.9996 8.0725 -26.7478
ltibia 48.9567
lfoot -25.3175 11.0075
ltoes -13.4524
1751
root 0.451514 17.0005 -1.07951 2.77614 -4.23628 5.25184
lowerback 16.7629 5.52003 -1.2064
upperback 12.3647 7.0338 0.328724
thorax 3.72859 3.44794 0.0912947
lowerneck 8.47166 -5.88018 -6.33361
upperneck 2.89384 -8.30333 4.2482
head -0.0607132 -4.22495 2.62377
rclavicle 3.18055e-014 -1.66979e-014
rhumerus 18.9854 10.4741 -85.5572
rradius 122.367
rwrist 22.6444
rhand 33.6914 -11.7104
rfingers 7.12502
rthumb 56.9915 -28.3035
lclavicle 3.18055e-014 -1.66979e-014
lhumerus 31.4272 -19.8116 75.6945
lradius 131.693
lwrist -13.8272
lhand 25.1517 44.2392
lfingers 7.12502
lthumb 49.3004 65.8217
rfemur -30.3129 -4.05845 12.0579
rtibia 52.9096
rfoot -22.5606 -16.2902
rtoes -14.13
lfemur -26.988 7.85294 -26.6988
ltibia 48.7039
lfoot -25.162 11.0249
ltoes -13.1169
1752
root 0.452448 17.0148 -1.08183 2.86139 -4.0583 5.11447
lowerback 16.7023 5.45749 -1.05425
upperback 12.3485 6.97204 0.449624
thorax 3.74319 3.42153 0.147477
lowerneck 8.38489 -5.94103 -6.3714
upperneck 2.90759 -8.38288 4.24162
head -0.0354762 -4.26427 2.62502
rclavicle -8.11041e-014 3.33958e-014
rhumerus 18.2686 10.5018 -85.785
rradius 122.561
rwrist 22.4166
rhand 33.9629 -11.3686
rfingers 7.12502
rthumb 57.2301 -27.7613
lclavicle -8.11041e-014 3.33958e-014
lhumerus 31.9982 -19.3539 75.6575
lradius 131.464
lwrist -13.3528
lhand 25.4761 43.969
lfingers 7.12502
lthumb 49.5979 65.4003
rfemur -30.2114 -4.09092 12.209
rtibia 52.6454
rfoot -22.3869 -16.5477
rtoes -15.0145
lfemur -26.9795 7.66446 -26.5538
ltibia 48.5255
lfoot -25.1009 10.9962
ltoes -12.9549
1753
root 0.453482 17.0256 -1.08565 2.97234 -3.89495 4.92336
lowerback 16.6395 5.38746 -0.90235
upperback 12.288 6.89961 0.587891
thorax 3.70795 3.38904 0.220345
lowerneck 8.34911 -5.99143 -6.35384
upperneck 2.93805 -8.44623 4.1744
head -0.0195565 -4.29474 2.59792
rclavicle 1.35174e-014 -2.8625e-014
rhumerus 17.528 10.6522 -85.9439
rradius 122.822
rwrist 22.1661
rhand 33.8848 -11.5456
rfingers 7.12502
rthumb 57.1616 -27.9962
lclavicle 1.35174e-014 -2.8625e-014
lhumerus 32.5164 -18.914 75.6689
lradius 131.202
lwrist -12.6529
lhand 25.7775 43.9531
lfingers 7.12502
lthumb 49.874 65.2418
rfemur -30.1608 -4.11233 12.4306
rtibia 52.4165
rfoot -22.1344 -16.911
rtoes -16.2625
lfemur -27.0488 7.46422 -26.3532
ltibia 48.4237
lfoot -25.1798 11.0227
ltoes -12.8063
1754
root 0.454135 17.0351 -1.08917 3.0633 -3.74943 4.75951
lowerback 16.5838 5.28544 -0.853805
upperback 12.2338 6.77242 0.729613
thorax 3.66426 3.32222 0.359782
lowerneck 8.2809 -6.02459 -6.39983
upperneck 3.00042 -8.49094 4.09313
head 0.0130387 -4.31642 2.57507
rclavicle 5.24792e-014 -3.02153e-014
rhumerus 16.9177 10.9682 -86.0404
rradius 123.112
rwrist 21.9018
rhand 33.7149 -11.9824
rfingers 7.12502
rthumb 57.0122 -28.5582
lclavicle 5.24792e-014 -3.02153e-014
lhumerus 32.9406 -18.7886 75.4281
lradius 130.907
lwrist -13.0183
lhand 25.1735 43.9843
lfingers 7.12502
lthumb 49.3204 65.5566
rfemur -30.1265 -4.13245 12.6253
rtibia 52.2423
rfoot -22.0402 -17.0792
rtoes -16.3688
lfemur -27.1339 7.23034 -26.1813
ltibia 48.3833
lfoot -25.4149 11.0823
ltoes -12.4573
1755
root 0.456001 17.0399 -1.09316 3.15858 -3.65495 4.70178
lowerback 16.5509 5.17671 -0.935007
upperback 12.1474 6.62054 0.816962
thorax 3.567 3.23749 0.512395
lowerneck 8.29848 -6.00345 -6.48139
upperneck 3.00149 -8.47118 4.06387
head 0.0114704 -4.30731 2.58043
rclavicle -2.8625e-014 3.33958e-014
rhumerus 16.3559 11.2512 -86.1386
rradius 123.39
rwrist 21.6442
rhand 34.0456 -12.0499
rfingers 7.12502
rthumb 57.3027 -28.3809
lclavicle -2.8625e-014 3.33958e-014
lhumerus 33.3095 -18.7333 75.1592
lradius 130.573
lwrist -13.7936
lhand 24.4083 43.888
lfingers 7.12502
lthumb 48.6174 65.8075
rfemur -30.1691 -4.16629 12.6939
rtibia 52.1367
rfoot -21.9961 -17.1729
rtoes -16.3639
lfemur -27.2449 6.96265 -26.1317
ltibia 48.3805
lfoot -25.6444 11.0576
ltoes -11.5665
1756
root 0.454875 17.0409 -1.09652 3.24691 -3.56292 4.56877
lowerback 16.5245 5.0766 -0.940945
upperback 12.0573 6.48913 0.888485
thorax 3.47321 3.16852 0.60427
lowerneck 8.23845 -5.9748 -6.44556
upperneck 3.05997 -8.42807 4.04579
head 0.0354554 -4.28548 2.56367
rclavicle -3.97569e-014 2.54444e-014
rhumerus 15.8385 11.4066 -86.2578
rradius 123.685
rwrist 21.4406
rhand 34.2943 -12.0333
rfingers 7.12502
rthumb 57.5207 -28.1771
lclavicle -3.97569e-014 2.54444e-014
lhumerus 33.7617 -18.5413 75.0632
lradius 130.168
lwrist -14.0952
lhand 24.2292 43.5249
lfingers 7.12502
lthumb 48.4526 65.5238
rfemur -30.2096 -4.14929 12.8582
rtibia 52.0795
rfoot -21.9886 -17.2364
rtoes -16.3367
lfemur -27.3697 6.77075 -25.9906
ltibia 48.4184
lfoot -25.563 11.2482
ltoes -12.0929
1757
root 0.451719 17.0409 -1.0975 3.25977 -3.47652 4.46433
lowerback 16.4824 5.04104 -0.933404
upperback 11.9951 6.4451 0.898639
thorax 3.42645 3.14689 0.616451
lowerneck 8.2593 -6.04948 -6.10987
upperneck 3.06065 -8.49932 3.99049
head 0.0192865 -4.31723 2.4875
rclavicle 6.36111e-014 -1.74931e-014
rhumerus 15.3908 11.2891 -86.3729
rradius 123.994
rwrist 21.3415
rhand 33.7983 -11.8422
rfingers 7.12502
rthumb 57.0855 -28.3567
lclavicle 6.36111e-014 -1.74931e-014
lhumerus 34.3569 -18.6294 74.8962
lradius 129.642
lwrist -14.5177
lhand 24.2146 43.1803
lfingers 7.12502
lthumb 48.4391 65.1855
rfemur -30.1968 -4.12322 12.9969
rtibia 52.0705
rfoot -21.9465 -17.4058
rtoes -16.7767
lfemur -27.416 6.62282 -25.8332
ltibia 48.4734
lfoot -25.4893 11.1901
ltoes -12.109
1758
root 0.45348 17.0376 -1.098 3.23929 -3.43417 4.40443
lowerback 16.3398 4.95017 -1.00319
upperback 12.0144 6.3214 0.917404
thorax 3.51345 3.07907 0.704346
lowerneck 8.32572 -6.06399 -5.86593
upperneck 2.9453 -8.49992 3.89653
head -0.0433766 -4.31415 2.41948
rclavicle 5.1684e-014 -4.92986e-014
rhumerus 15.1106 11.3591 -86.4033
rradius 124.282
rwrist 21.2386
rhand 33.1746 -11.6698
rfingers 7.12502
rthumb 56.5361 -28.6358
lclavicle 5.1684e-014 -4.92986e-014
lhumerus 34.9718 -18.684 74.6656
lradius 129.043
lwrist -15.3656
lhand 24.0419 43.2127
lfingers 7.12502
lthumb 48.2801 65.2938
rfemur -30.1784 -4.14675 13.0686
rtibia 52.0981
rfoot -21.9889 -17.5259
rtoes -17.1609
lfemur -27.4447 6.47383 -25.7404
ltibia 48.5793
lfoot -25.709 11.0215
ltoes -11.3402
1759
root 0.456821 17.0297 -1.09638 3.18676 -3.44275 4.42386
lowerback 16.1327 4.82793 -1.22489
upperback 12.1018 6.14021 0.945151
thorax 3.69408 2.9714 0.901311
lowerneck 8.30991 -6.00298 -5.77679
upperneck 2.82594 -8.41071 3.84066
head -0.0898254 -4.26795 2.38697
rclavicle 3.4191e-014 -2.38542e-014
rhumerus 14.9452 11.5962 -86.4051
rradius 124.592
rwrist 21.1753
rhand 33.186 -12.0125
rfingers 7.12502
rthumb 56.5462 -28.9704
lclavicle 3.4191e-014 -2.38542e-014
lhumerus 35.5381 -18.6097 74.5491
lradius 128.507
lwrist -15.7545
lhand 23.7222 43.616
lfingers 7.12502
lthumb 47.9855 65.8356
rfemur -30.141 -4.17794 13.0387
rtibia 52.1748
rfoot -22.1039 -17.5245
rtoes -17.2632
lfemur -27.4424 6.41974 -25.7659
ltibia 48.7147
lfoot -25.9069 10.9039
ltoes -10.6952
1760
root 0.459312 17.0178 -1.09623 3.07813 -3.44948 4.31822
lowerback 15.9936 4.65418 -1.37918
upperback 12.2035 5.89769 1.02589
thorax 3.85974 2.83412 1.11887
lowerneck 8.21626 -5.87672 -5.81613
upperneck 2.78975 -8.24367 3.78241
head -0.0953449 -4.18413 2.3699
rclavicle -2.38542e-014 -1.35174e-014
rhumerus 14.9476 11.8633 -86.2975
rradius 124.913
rwrist 20.965
rhand 33.7457 -12.1429
rfingers 7.12502
rthumb 57.0393 -28.6962
lclavicle -2.38542e-014 -1.35174e-014
lhumerus 36.0993 -18.1973 74.612
lradius 128.011
lwrist -15.4855
lhand 23.683 43.9759
lfingers 7.12502
lthumb 47.9494 66.2123
rfemur -30.0464 -4.15238 13.152
rtibia 52.2827
rfoot -22.3153 -17.3755
rtoes -16.1748
lfemur -27.4314 6.33102 -25.6074
ltibia 48.9163
lfoot -26.0233 10.5782
ltoes -9.33169
1761
root 0.4618 17.0039 -1.09657 2.93573 -3.43913 4.21554
lowerback 15.9493 4.43862 -1.52879
upperback 12.268 5.59908 1.08822
thorax 3.94168 2.67017 1.31152
lowerneck 8.17661 -5.70765 -5.93614
upperneck 2.76824 -8.0295 3.74806
head -0.103587 -4.07827 2.37627
rclavicle 5.725e-014 -1.59028e-014
rhumerus 15.016 12.17 -86.151
rradius 125.258
rwrist 20.5423
rhand 34.0982 -11.9362
rfingers 7.12502
rthumb 57.3489 -28.2278
lclavicle 5.725e-014 -1.59028e-014
lhumerus 36.6402 -17.6368 74.5869
lradius 127.497
lwrist -15.1843
lhand 23.6037 44.1879
lfingers 7.12502
lthumb 47.8762 66.4583
rfemur -29.9539 -4.1666 13.249
rtibia 52.4267
rfoot -22.6439 -17.1022
rtoes -14.4169
lfemur -27.4149 6.23575 -25.4468
ltibia 49.1654
lfoot -26.1241 10.4139
ltoes -8.96184
1762
root 0.464823 16.9878 -1.09655 2.78616 -3.44445 4.13601
lowerback 16.0002 4.2002 -1.70229
upperback 12.2788 5.26518 1.14123
thorax 3.91788 2.48838 1.50223
lowerneck 8.18765 -5.51101 -6.14314
upperneck 2.73559 -7.78865 3.7081
head -0.122438 -3.96005 2.39824
rclavicle 1.03368e-014 -3.97569e-015
rhumerus 15.0852 12.554 -86.0028
rradius 125.638
rwrist 20.0463
rhand 34.1486 -12.0026
rfingers 7.12502
rthumb 57.393 -28.2564
lclavicle 1.03368e-014 -3.97569e-015
lhumerus 37.044 -17.1853 74.5199
lradius 127.038
lwrist -15.0712
lhand 23.5168 44.1898
lfingers 7.12502
lthumb 47.796 66.4973
rfemur -29.891 -4.21109 13.319
rtibia 52.5971
rfoot -22.7864 -17.0529
rtoes -14.0721
lfemur -27.3969 6.20902 -25.3528
ltibia 49.4603
lfoot -26.1207 10.556
ltoes -9.69486
